<?xml version="1.0" standalone="no"?>
<!-- Generator: Adobe Fireworks CS6, Export SVG Extension by Aaron Beall (http://fireworks.abeall.com) . Version: 0.6.1  -->
<!DOCTYPE svg PUBLIC "-//W3C//DTD SVG 1.1//EN" "http://www.w3.org/Graphics/SVG/1.1/DTD/svg11.dtd">
<svg id="hello_svg" viewBox="0 0 1000 800" style="background-color:#ffffff00" version="1.1"
	xmlns="http://www.w3.org/2000/svg" xmlns:xlink="http://www.w3.org/1999/xlink" xml:space="preserve"
	x="0px" y="0px" width="1000px" height="800px">
	<path id="hello_path" stroke-linecap="round"  stroke-linejoin="round"  d="M 290.0117 414.3008 C 300.9336 409.5664 302.5273 398.1445 305.9297 389.1875 C 316.4375 361.5547 324.5508 333.164 322.7617 302.9336 C 322.3672 296.25 320.8555 289.9492 318.7227 283.7734 C 316.9297 278.5781 313.4609 275.0234 307.2891 275.0586 C 301.2813 275.0937 298.957 278.6172 296.5586 283.6601 C 290.293 296.8476 289.6953 311.0234 288.1602 325.0312 C 285.4297 349.914 284.4883 375.0898 286.8047 399.8437 C 288.2422 415.2031 286.6836 429.9726 286.8516 445.0234 C 286.9453 453.6992 288.2344 461.6836 289.5313 469.9843 L 289.5313 469.9843 L 290.0117 470.1406 L 290.0117 470.1406 C 296.4293 463.127 298.7266 458.5273 301.3984 453.5898 C 307.5117 442.3047 313.8867 431.1484 321.8242 421.1289 C 330.3789 410.332 338.4063 411.9922 342.6758 424.9062 L 343.2891 428.7031 C 340.5625 437.8672 341.2109 447.3828 342.1211 456.5156 C 343.5391 470.7304 356.3633 475.5508 367.7813 467.1133 C 373.8984 462.5937 377.9961 456.1172 383.3398 451 C 386.0535 448.4016 388.1584 447.5634 389.8565 444.5636 C 389.8565 444.5636 396.4178 452.2525 398.5484 456 C 400.4102 455.582 400.4102 455.582 400.4102 455.582 C 414.2539 449.7851 423.707 440.3515 425.8516 424.8633 L 425.5562 422.5749 C 425.0381 421.5458 424.8705 420.1721 424.4219 419.0976 C 420.9219 410.7265 413.6367 407.8906 406.2109 412.4453 C 401.5508 415.3047 397.9531 418.8672 396.3711 424.8086 C 394.7374 430.9484 394.9886 435.0307 391.8565 440.5636 L 398.5484 456 C 399.6772 457.9854 400.7703 460.0034 401.8281 462.0664 C 408.9023 475.8437 431.418 476.5 444.6523 465.2773 C 454.0742 457.289 478.1836 412.3906 480.1641 408.582 C 491.5586 386.625 499.8242 363.4961 504.8672 339.3828 C 508.3672 322.6445 508.3281 305.5 505.4492 288.5547 C 504.3789 282.2695 501.7344 276.1718 494.4727 275.2539 C 487.1172 274.3203 484.0859 279.5859 480.8711 285.5664 C 470.4766 304.8789 469.6484 326.3086 467.0039 347.1484 C 465.168 361.6328 467.5703 376.6172 466.3984 391.2422 C 465.1719 406.5 474.1836 421.0742 468.5977 436.3906 C 468.3906 436.957 468.3008 438.0078 468.6094 438.25 C 476.1055 444.1601 476.5547 453.8554 480.668 461.5468 C 487.4688 474.2695 503.9063 476.3633 514.8203 466.3281 C 524.4375 457.4804 529.1797 445.2656 538.2265 435.9687 L 543.4492 418.1406 C 552.6601 411.5195 554.5429 400.5508 558.5976 391.1718 C 570.7265 363.1015 579.3203 334.0742 578.0624 302.9414 C 577.7929 296.2812 576.8554 289.8906 574.1992 283.7304 C 569.5234 272.8828 561.1718 271.7265 553.9765 280.8359 C 546.1562 290.7383 544.0078 302.9336 541.871 314.5234 C 537.914 335.9922 535.8398 357.8359 535.8516 379.7422 C 535.8555 392.5429 535.7305 405.1523 541.9101 417.4726 L 542.2006 418.1406 C 544.0154 422.9785 541.8711 432.2235 538.2265 435.9687 L 539.6093 438.3008 C 545.7968 442.8086 546.246 450.5078 548.8906 456.6797 C 557.5585 476.9023 575.9062 478.2695 589.332 462.1367 C 592.9995 457.7306 597.1951 453.6566 600.6583 449 C 603.569 445.0861 605.9624 440.7607 607.0898 435.4804 C 608.9179 426.9258 616.6367 417.6953 625.2148 414.4414 C 629.1367 412.9531 627.1367 414.9531 623.2148 416.4414 C 614.6367 419.6953 608.9179 426.9258 607.0898 435.4804 C 605.9624 440.7607 603.569 445.0861 600.6583 449 C 600.6583 449 608.9726 463.8633 616.2382 468.3437 C 633.4492 478.9609 652.5117 468.4843 656.6523 450.7812 L 656.6523 450.7812 L 657.6913 449.8242 C 662.7929 439.9023 660.9335 429.9765 657.6835 420.0625 C 655.7148 414.0508 651.8007 409.875 645.2617 411.6054 C 638.4023 413.414 636.8867 420.4336 637.8476 425.7656 C 639.9882 437.5468 643.6913 447.4726 656.6523 450.7812 L 656.6523 450.7812 C 657.6132 451.7422 659.6132 451.7422 659.6132 451.7422 C 676.6288 457.2383 695.1054 446.6172 698.0117 429.664 " stroke="#000000" stroke-width="16" fill="none"/>
</svg>