<?xml version="1.0" standalone="no"?>
<!-- Generator: Adobe Fireworks CS6, Export SVG Extension by Aaron Beall (http://fireworks.abeall.com) . Version: 0.6.1  -->
<!DOCTYPE svg PUBLIC "-//W3C//DTD SVG 1.1//EN" "http://www.w3.org/Graphics/SVG/1.1/DTD/svg11.dtd">
<svg id="car.fw-Page%201" viewBox="0 0 383 181" style="background-color:#ffffff00" version="1.1"
	xmlns="http://www.w3.org/2000/svg" xmlns:xlink="http://www.w3.org/1999/xlink" xml:space="preserve"
>
	<g id="whole_car">
		<g id="car">
			<path d="M 324 78.7168 L 324 117.4619 L 324 139 L 302.7822 139 L 13.4771 139 C 13.4771 139 3 136.1914 3 128.4414 L 3 114.8789 L 3 83.8848 C 3 83.8848 5.0088 76.1318 11.4678 72.2598 L 75.0044 54.8242 L 107.417 5.958 C 107.417 5.958 110.3438 1 117.4448 1 L 253.7036 1 C 253.7036 1 267.9102 -2.1143 267.9102 10.8008 L 291.1577 48.6328 L 315.3389 61.7373 C 315.3389 61.7373 324 67.0928 324 78.7168 Z" fill="#f58f55"/>
			<path d="M 332 127.5879 C 332 132.2236 329.1489 139 325.0264 139 L 319.2837 139 C 315.1611 139 310 132.2236 310 127.5879 L 310 126.2969 C 310 121.6592 315.1611 117 319.2837 117 L 325.0264 117 C 329.1489 117 332 121.6592 332 126.2969 L 332 127.5879 Z" fill="#ffce86"/>
			<path d="M 102.5273 45.5156 L 113.4131 17 L 171 17 L 171 60 L 98.7202 60 L 102.5273 45.5156 Z" fill="#a63d5a"/>
			<path d="M 101 67.5684 C 101 70.4219 100.3516 75.3184 97.5 75.3184 L 97.5 75.3184 C 94.6465 75.3184 94 70.4219 94 67.5684 L 94 46.9023 C 94 44.0508 94.6465 41.7354 97.5 41.7354 L 97.5 41.7354 C 100.3516 41.7354 101 44.0508 101 46.9023 L 101 67.5684 Z" fill="#ffce86"/>
			<path d="M 170 71.5 C 170 72.8809 168.8809 74 167.5 74 L 147.5 74 C 146.1191 74 145 72.8809 145 71.5 L 145 71.5 C 145 70.1191 146.1191 69 147.5 69 L 167.5 69 C 168.8809 69 170 70.1191 170 71.5 L 170 71.5 Z" fill="#ffce86"/>
			<path d="M 20 128.4414 C 20 133.0771 16.6069 139 12.4829 139 L 6.7422 139 C 2.6221 139 0 133.0771 0 128.4414 L 0 127.1494 C 0 122.5146 2.6221 118 6.7422 118 L 12.4829 118 C 16.6069 118 20 122.5146 20 127.1494 L 20 128.4414 Z" fill="#ffce86"/>
			<path d="M 184 17.5908 L 184 59.1465 L 261.4717 58.7168 L 240.332 16.9424 L 184 17.5908 Z" fill="#a63d5a"/>
			<path d="M 259.5156 18.0176 L 259.5156 18.0176 Z" stroke="#2f0d2b" stroke-width="1" fill="none"/>
			<path d="M 339 146 L 293 146 L 293 139 L 339 139 L 339 146 Z" fill="#5b2947"/>
			<path d="M 69.7935 57.8574 L 91.272 57.8457 L 109.7451 16.1865 L 103.2124 11.8135 L 103.2124 11.8135 " fill="#58b2ab"/>
			<path d="M 260 69.5 C 260 70.8809 258.8809 72 257.5 72 L 237.5 72 C 236.1191 72 235 70.8809 235 69.5 L 235 69.5 C 235 68.1191 236.1191 67 237.5 67 L 257.5 67 C 258.8809 67 260 68.1191 260 69.5 L 260 69.5 Z" fill="#ffce86"/>
			<path d="M 18 103.1426 C 18 107.0771 13.2764 112 10.1846 112 L 9.7729 112 C 6.6816 112 3 107.0771 3 103.1426 L 3 92.0518 C 3 88.1152 6.6816 85 9.7729 85 L 10.1846 85 C 13.2764 85 18 88.1152 18 92.0518 L 18 103.1426 Z" fill="#ffce86"/>
			<path d="M 319 93.7656 C 319 96.3018 316.498 98.3574 314 98.3574 L 314 98.3574 C 311.502 98.3574 309 96.3018 309 93.7656 L 309 77.1016 C 309 74.5674 311.502 72.5107 314 72.5107 L 314 72.5107 C 316.498 72.5107 319 74.5674 319 77.1016 L 319 93.7656 Z" fill="#ef4b48"/>
			<path d="M 75.0688 58.8574 L 14.3711 75.5898 C 14.3711 75.5898 10.1162 75.5898 7.563 84.0986 L 7.563 84.0986 " stroke="#f0ead6" stroke-width="1" fill="none"/>
			<path d="M 259.5156 18.0176 L 279.1436 56.3818 L 291.1577 48.6963 L 268.5874 12.3984 L 268.5874 12.3984 " fill="#58b2ab"/>
			<path d="M 118.3398 60.3652 L 123.7378 49 L 171 49 L 171 60 L 171 60 " fill="#58b2ab"/>
			<path d="M 184 41 L 241.8369 41 L 250.9951 59 L 184 59 L 184 59 " fill="#58b2ab"/>
			<path d="M 178 134 L 175 134 L 175 8 L 178 8 L 178 134 Z" fill="#db6c32"/>
			<path d="M 326.8623 180.8696 L 8.1377 180.8696 C 5.312 180.8696 3 178.5576 3 175.7314 L 3 175.7314 C 3 172.9058 5.312 170.5938 8.1377 170.5938 L 326.8623 170.5938 C 329.688 170.5938 332 172.9058 332 175.7314 L 332 175.7314 C 332 178.5576 329.688 180.8696 326.8623 180.8696 Z" fill="#76304c"/>
		</g>
		<g id="tyre2">
			<path d="M 110.9419 129.5381 C 110.9419 150.9248 93.6035 168.2607 72.2202 168.2607 C 50.8325 168.2607 33.4971 150.9248 33.4971 129.5381 C 33.4971 108.1553 50.8325 90.8145 72.2202 90.8145 C 93.6035 90.8145 110.9419 108.1553 110.9419 129.5381 Z" fill="#5b2947"/>
			<path d="M 91.2515 129.0264 C 91.2515 140.1113 82.2637 149.0977 71.1787 149.0977 C 60.0967 149.0977 51.1113 140.1113 51.1113 129.0264 C 51.1113 117.9424 60.0967 108.959 71.1787 108.959 C 82.2637 108.959 91.2515 117.9424 91.2515 129.0264 Z" fill="#eb6e63"/>
			<path d="M 80 128.498 C 80 133.1934 76.1929 137 71.4966 137 L 70.5034 137 C 65.8071 137 62 133.1934 62 128.498 L 62 127.502 C 62 122.8066 65.8071 119 70.5034 119 L 71.4966 119 C 76.1929 119 80 122.8066 80 127.502 L 80 128.498 Z" fill="#ffce86"/>
		</g>
		<g id="tyre1">
			<path d="M 295.6768 130.6768 C 295.6768 151.9102 278.4639 169.127 257.2285 169.127 C 235.9932 169.127 218.7822 151.9102 218.7822 130.6768 C 218.7822 109.4395 235.9932 92.2266 257.2285 92.2266 C 278.4639 92.2266 295.6768 109.4395 295.6768 130.6768 Z" fill="#5b2947"/>
			<path d="M 276.5332 130.4355 C 276.5332 140.8721 268.0713 149.332 257.6328 149.332 C 247.2007 149.332 238.7402 140.8721 238.7402 130.4355 C 238.7402 120 247.2007 111.541 257.6328 111.541 C 268.0713 111.541 276.5332 120 276.5332 130.4355 Z" fill="#eb6e63"/>
			<path d="M 266 132.084 C 266 136.4561 262.4556 140 258.0835 140 L 256.9165 140 C 252.5444 140 249 136.4561 249 132.084 L 249 130.916 C 249 126.5439 252.5444 123 256.9165 123 L 258.0835 123 C 262.4556 123 266 126.5439 266 130.916 L 266 132.084 Z" fill="#ffce86"/>
		</g>
		<path id="smoke2" d="M 360.541 143.8594 C 360.541 146.8154 358.145 149.2129 355.1851 149.2129 L 355.1851 149.2129 C 352.2266 149.2129 349.8276 146.8154 349.8276 143.8594 L 349.8276 143.8594 C 349.8276 140.8994 352.2266 138.5 355.1851 138.5 L 355.1851 138.5 C 358.145 138.5 360.541 140.8994 360.541 143.8594 L 360.541 143.8594 Z" fill="#5b2947"/>
		<path id="smoke1" d="M 383 145.6758 C 383 149.877 381.6855 153 377.4863 153 L 374.6021 153 C 370.4033 153 367 149.877 367 145.6758 L 367 142.7939 C 367 138.5928 370.4033 136 374.6021 136 L 377.4863 136 C 381.6855 136 383 138.5928 383 142.7939 L 383 145.6758 Z" fill="#5b2947"/>
	</g>
</svg>