<?xml version="1.0" standalone="no"?>
<!-- Generator: Adobe Fireworks CS6, Export SVG Extension by Aaron Beall (http://fireworks.abeall.com) . Version: 0.6.1  -->
<!DOCTYPE svg PUBLIC "-//W3C//DTD SVG 1.1//EN" "http://www.w3.org/Graphics/SVG/1.1/DTD/svg11.dtd">
<svg id="asteroid.fw-Page%201" viewBox="0 0 443 261" style="background-color:#00070d" version="1.1"
	xmlns="http://www.w3.org/2000/svg" xmlns:xlink="http://www.w3.org/1999/xlink" xml:space="preserve"
>
	<g id="Layer%201">
		<path id="earth-path" d="M 447 164 C 431.3467 163.7471 410.7607 165.2871 395.1357 165.7637 C 375.832 166.3525 356.5195 166.668 337.2148 167.2217 C 295.7705 168.4111 254.3232 169.1855 212.8594 168.708 L 146.9961 166.9951 C 139.9626 167.0025 132.935 166.9946 125.9058 166.998 C 100.3447 165.5674 74.7339 165.6943 49.1641 164.2119 C 34.9087 163.3848 20.6089 163.0967 6.3545 162.0098 C 4.873 161.8965 3.3232 162.1182 2.123 160.9297 C 2.1235 160.7243 -4.8761 160.5188 -4.8756 160.3134 L -4.2141 103.0132 L 8.6245 101.4146 L 137.9585 96.96 C 172.3333 96 202.7499 95.0188 233.8613 95.2227 C 245.4939 95.2989 366 95.3333 373 96.1971 C 373 96.1971 425.722 97.8222 447 100 L 447 164 Z" stroke="#eeeeee" stroke-width="1" fill="none"/>
		<path id="marspath" d="M 273.8626 144.4982 C 275.7806 144.7803 277.7318 144.5689 279.6289 144.4316 C 291.3828 143.582 303.1465 142.9287 314.9209 142.4678 C 328.9238 142.2695 342.75 139.6348 356.7529 139.4189 C 368.9111 138.0273 381.1338 137.3271 393.2969 135.9932 C 409.5576 134.2109 427.9053 133.1289 444 130 C 444 125 444 120 444 115 C 442.6904 113.7642 439.041 113.7319 437.374 113.5713 C 424.1768 112.2988 410.9424 112.5957 397.7158 112.5674 C 395.3975 112.5625 394.125 112.625 390.8428 112.8311 C 375.2317 112.294 359.6187 112.5906 344 112.6703 C 344 112.6703 273.5469 113.4741 241.3184 114.8276 C 224.4082 115.5381 207.4893 116.1377 190.5752 116.7783 C 168.1899 117.6265 145.8564 119.5586 123.4644 119.8843 C 116.8271 119.981 110.293 120.8438 103.7173 121.2568 C 84.9582 122.4353 66.2398 124.2636 47.5067 125.8617 L 33.2468 127.4718 C 22.8912 128.6717 9.5331 129.8522 -0.8242 131.04 C -0.8179 136.9863 -0.811 142.9336 -0.8042 148.8809 C 0.4233 150.2852 5.0952 150.3857 6.7759 150.4053 C 18.2407 150.5381 29.6997 150.9355 41.1567 151.252 C 63.7832 151.8779 86.4448 151.749 109.0786 151.2793 C 117.8408 151.0977 156.1255 149.5049 162.7197 149.4395 C 173.981 149.0586 185.2529 149.127 196.5278 148.7334 C 215.5752 148.0684 234.6045 146.9297 253.6582 146.4531 C 255.5001 146.4071 257.3053 146.2274 259.0823 145.8725 L 273.8626 144.4982 Z" stroke="#eeeeee" stroke-width="1" fill="none"/>
		<path id="mercury-path" d="M 279.3467 127.8018 L 264.9717 127.8018 C 249.1904 127.8984 233.4014 127.7178 217.6299 128.1543 C 191.8198 128.8691 166.0181 128.915 140.2188 129.9775 C 133.1387 130.2695 96.6667 131.1667 93.4092 133.833 C 91.497 135.3981 111.0752 135.0615 111.0752 135.0615 L 117 135.0607 L 145.4752 135.0497 C 158.9375 134.9875 172.4003 134.9253 186.8774 134.8574 C 194.707 135.2006 301.528 132.9534 301.528 132.9534 C 310.7107 133.2824 373.1667 130.6667 372.9512 128.0293 C 372.5 124.875 319.5156 126.9688 319.5156 126.9688 L 279.3467 127.8018 Z" stroke="#eeeeee" stroke-width="1" fill="none"/>
		<path id="mercury%3F" d="M 209 132.5 C 209 130.567 210.567 129 212.5 129 C 214.433 129 216 130.567 216 132.5 C 216 134.433 214.433 136 212.5 136 C 210.567 136 209 134.433 209 132.5 Z" fill="#ffff00"/>
		<path opacity="0.502" d="M -7 181 L 39 155 C 39 155 69.25 138.5 73 137 C 76.75 135.5 95.5 123.75 102 121 C 108.5 118.25 132.75 103.75 138 102 C 143.25 100.25 177 82.75 178 82 C 179 81.25 218 63 218 63 C 218 63 370.75 -10 374 -10 " stroke="#cccccc" stroke-width="1" fill="none"/>
		<path id="Ellipse" d="M 41 126 C 41 124.3431 42.3431 123 44 123 C 45.6569 123 47 124.3431 47 126 C 47 127.6569 45.6569 129 44 129 C 42.3431 129 41 127.6569 41 126 Z" fill="#ecf0f1"/>
		<path id="Ellipse2" d="M 105 134.5 C 105 133.1193 106.1193 132 107.5 132 C 108.8807 132 110 133.1193 110 134.5 C 110 135.8807 108.8807 137 107.5 137 C 106.1193 137 105 135.8807 105 134.5 Z" fill="#ffffff"/>
		<path id="actual-earth-path" d="M 294.3619 168.2693 C 267.1989 168.7962 240.0327 169.021 212.8594 168.708 L 146.9961 166.9951 C 145.6639 166.9965 144.3319 166.9974 143 166.9979 " stroke="#eeeeee" stroke-width="1" fill="none"/>
		<path id="earth" d="M 151 167 C 151 165.3431 152.3431 164 154 164 C 155.6569 164 157 165.3431 157 167 C 157 168.6569 155.6569 170 154 170 C 152.3431 170 151 168.6569 151 167 Z" fill="#00c8ff"/>
		<path id="actual-asteroid-path" d="M 143.7344 196.0518 C 150.0475 193.5559 157.5966 190.5337 158.6812 190.1006 L 180.2451 181.5264 L 212.8594 168.708 C 214.6982 168.167 221.5918 164.7324 223.418 163.9746 L 259.0955 149.1432 " stroke="#00c8ff" stroke-width="2" fill="none"/>
		<path id="asteroid-path" d="M -1 248 L 8 245 L 8 245.1967 C 51.5844 231.0616 94.4995 215.0587 137.2422 198.5957 C 142.9697 196.3896 157.1626 190.707 158.6812 190.1006 L 180.2451 181.5264 L 212.8594 168.708 C 214.6982 168.167 221.5918 164.7324 223.418 163.9746 L 267.1758 145.7842 C 268.9766 145.2725 275.7041 141.7363 277.5469 141.0156 C 285.0703 138.0742 377.917 96.8193 377.917 96.8193 C 379.0156 96.3701 404.75 83.5679 416.835 78.2935 C 424.5859 74.9105 435.8794 68.512 443.8809 65.7004 " stroke="#00c8ff" stroke-width="2" fill="none"/>
		<path id="asteroid" d="M 152 191 C 152 189.3431 153.3431 188 155 188 C 156.6569 188 158 189.3431 158 191 C 158 192.6569 156.6569 194 155 194 C 153.3431 194 152 192.6569 152 191 Z" fill="#ffffff"/>
	</g>
</svg>