<?xml version="1.0" standalone="no"?>
<!DOCTYPE svg PUBLIC "-//W3C//DTD SVG 1.1//EN" "http://www.w3.org/Graphics/SVG/1.1/DTD/svg11.dtd">
<svg id="bike.fw-Page%201" viewBox="0 0 330 200" style="background-color:#ffffff00" version="1.1"
	xmlns="http://www.w3.org/2000/svg" xmlns:xlink="http://www.w3.org/1999/xlink" xml:space="preserve"
>
	<g id="bike">
		<g id="tyre2">
			<path d="M 208.0469 135.8691 C 208.0469 162.2275 229.4141 183.5938 255.7715 183.5938 C 282.1309 183.5938 303.4961 162.2275 303.4961 135.8691 C 303.4961 109.5146 282.1309 88.1465 255.7715 88.1465 C 229.4141 88.1465 208.0469 109.5146 208.0469 135.8691 Z" stroke="#5b2947" stroke-width="8" fill="none"/>
			<path d="M 235.3965 134.8574 C 235.3965 146.2969 244.6709 155.5615 256.1006 155.5615 C 267.5342 155.5615 276.7979 146.2969 276.7979 134.8574 C 276.7979 123.4346 267.5342 114.1582 256.1006 114.1582 C 244.6709 114.1582 235.3965 123.4346 235.3965 134.8574 Z" fill="#58b2ab"/>
			<path d="M 214.627 136.5313 C 214.627 159.3682 233.1445 177.8838 255.9824 177.8838 C 278.8203 177.8838 297.332 159.3682 297.332 136.5313 C 297.332 113.6904 278.8203 95.1807 255.9824 95.1807 C 233.1445 95.1807 214.627 113.6904 214.627 136.5313 Z" stroke="#ffce86" stroke-width="3" fill="none"/>
		</g>
		<g id="tyre1">
			<path d="M 14.8438 136.3105 C 14.8438 163.0557 36.5273 184.7373 63.2705 184.7373 C 90.0176 184.7373 111.6963 163.0557 111.6963 136.3105 C 111.6963 109.5674 90.0176 87.8848 63.2705 87.8848 C 36.5273 87.8848 14.8438 109.5674 14.8438 136.3105 Z" stroke="#5b2947" stroke-width="8" fill="none"/>
			<path d="M 42.5967 135.2842 C 42.5967 146.8926 52.0083 156.293 63.604 156.293 C 75.2051 156.293 84.6064 146.8926 84.6064 135.2842 C 84.6064 123.6924 75.2051 114.2813 63.604 114.2813 C 52.0083 114.2813 42.5967 123.6924 42.5967 135.2842 Z" fill="#58b2ab"/>
			<path d="M 21.5225 136.9824 C 21.5225 160.1543 40.3096 178.9424 63.4829 178.9424 C 86.6582 178.9424 105.4404 160.1543 105.4404 136.9824 C 105.4404 113.8066 86.6582 95.0234 63.4829 95.0234 C 40.3096 95.0234 21.5225 113.8066 21.5225 136.9824 Z" stroke="#ffce86" stroke-width="3" fill="none"/>
			<path d="M 67.9443 137.0234 C 67.9443 139.416 66.0039 141.3584 63.6104 141.3584 C 61.2153 141.3584 59.2749 139.416 59.2749 137.0234 C 59.2749 134.6299 61.2153 132.6895 63.6104 132.6895 C 66.0039 132.6895 67.9443 134.6299 67.9443 137.0234 Z" fill="#2f0e2a"/>
		</g>
		<g id="restofbike">
			<path d="M 242.4844 74.75 L 242.4844 74.75 Z" stroke="#2f0d2b" stroke-width="1" fill="none"/>
			<path d="M 307.2041 130.5791 L 311.6553 129.5215 C 311.6553 100.2266 286.9717 77.6055 256.5303 77.6055 C 243.0176 77.6055 230.6387 81.1582 221.0557 88.9238 L 225.168 93.665 C 225.168 93.665 277.9346 64.499 307.2041 130.5791 Z" fill="#ffce86"/>
			<path d="M 54.5674 135.4453 C 54.5674 141.1172 59.1655 145.71 64.834 145.71 C 70.5044 145.71 75.0986 141.1172 75.0986 135.4453 C 75.0986 129.7773 70.5044 125.1797 64.834 125.1797 C 59.1655 125.1797 54.5674 129.7773 54.5674 135.4453 Z" stroke="#2f0e2a" stroke-width="2" fill="#58b2ab"/>
			<path d="M 60.1616 134.7051 C 60.1616 137.1221 62.1162 139.0791 64.5337 139.0791 C 66.9448 139.0791 68.9043 137.1221 68.9043 134.7051 C 68.9043 132.293 66.9448 130.333 64.5337 130.333 C 62.1162 130.333 60.1616 132.293 60.1616 134.7051 Z" fill="#2f0e2a"/>
			<path d="M 152.209 151.3301 L 152.209 151.3301 Z" stroke="#2f0e2a" stroke-width="5" fill="none"/>
			<path d="M 173.502 137.5332 C 173.502 138.9561 172.3496 140 170.9307 140 L 136.7637 140 C 135.3408 140 134.1895 138.9561 134.1895 137.5332 L 125.8491 96.3965 C 125.8491 94.9766 127.0015 94 128.4229 94 L 178.0771 94 C 179.498 94 180.6494 94.9766 180.6494 96.3965 L 173.502 137.5332 Z" fill="#eb6e63"/>
			<path d="M 83.5361 17.4482 C 91.9653 17.4482 98.7969 24.2832 98.7969 32.7109 C 98.7969 41.1396 91.9653 47.9727 83.5361 47.9727 L 83.5361 47.9727 " fill="#58b2ab"/>
			<path d="M 84 48 L 76 48 L 76 19 L 84 19 L 84 48 Z" fill="#ffce86"/>
			<path d="M 187 79 L 271 79 L 271 59 L 271 59 " stroke="#2f0e2a" stroke-width="2" fill="#58b2ab"/>
			<path d="M 188.9746 62.5391 C 188.9746 58.707 192.0801 55.6016 195.9111 55.6016 C 199.7422 55.6016 202.8486 58.707 202.8486 62.5391 L 202.8486 62.5391 " fill="#5b2947"/>
			<path d="M 202.8486 62.5391 C 202.8486 58.707 205.9531 55.6016 209.7852 55.6016 C 213.6172 55.6016 216.7217 58.707 216.7217 62.5391 L 216.7217 62.5391 " fill="#5b2947"/>
			<path d="M 216.7217 62.5391 C 216.7217 58.707 219.8262 55.6016 223.6572 55.6016 C 227.4883 55.6016 230.5947 58.707 230.5947 62.5391 L 230.5947 62.5391 " fill="#5b2947"/>
			<path d="M 230.5947 62.5391 C 230.5947 58.707 233.7012 55.6016 237.5303 55.6016 C 241.3633 55.6016 244.4678 58.707 244.4678 62.5391 L 244.4678 62.5391 " fill="#5b2947"/>
			<path d="M 244.4678 62.5391 C 244.4678 58.707 247.5742 55.6016 251.4053 55.6016 C 255.2363 55.6016 258.3408 58.707 258.3408 62.5391 L 258.3408 62.5391 " fill="#5b2947"/>
			<path d="M 258.3408 62.5391 C 258.3408 58.707 261.4463 55.6016 265.2783 55.6016 C 269.1084 55.6016 272.2158 58.707 272.2158 62.5391 L 272.2158 62.5391 " fill="#5b2947"/>
			<path d="M 280 75.3115 C 280 77.6074 278.6387 80 276.3389 80 L 276.0801 80 C 273.7822 80 271 77.6074 271 75.3115 L 271 49.3008 C 271 47.0039 273.7822 45 276.0801 45 L 276.3389 45 C 278.6387 45 280 47.0039 280 49.3008 L 280 75.3115 Z" fill="#f58f55"/>
			<path d="M 190 70.5 L 271 70.5 L 271 70.5 " stroke="#2f0d2b" stroke-width="1" fill="none"/>
			<path d="M 83.5361 101.3857 L 73.4766 124.9707 L 73.4766 124.9707 " stroke="#2f0e2a" stroke-width="2" fill="none"/>
			<path d="M 100.8774 15.1387 L 103.1895 32.7109 L 109.2007 35.0234 L 106.4277 15.1387 L 106.4277 15.1387 " fill="#f58f55"/>
			<path d="M 116.6021 2.1875 L 100.8774 8.2021 C 100.8774 8.2021 96.2529 10.9775 99.4155 16.376 C 101.0669 19.1963 103.8823 17.6797 105.9629 16.9883 L 119.376 12.8252 L 119.376 12.8252 " fill="#5b2947"/>
			<path d="M 125.3862 6.8125 C 125.3862 10.1338 122.6948 12.8252 119.376 12.8252 C 116.0552 12.8252 113.3652 10.1338 113.3652 6.8125 C 113.3652 3.4932 116.0552 0.8018 119.376 0.8018 C 122.6948 0.8018 125.3862 3.4932 125.3862 6.8125 Z" fill="#5b2947"/>
			<path d="M 240.1279 115.293 L 245.8555 130.5186 L 256.2598 128.4375 L 250.7119 112.1797 L 240.1279 115.293 Z" fill="#ffce86"/>
			<path d="M 49.7886 74.292 L 49.7886 74.292 Z" stroke="#2f0d2b" stroke-width="1" fill="none"/>
			<path d="M 115.4585 130.9414 L 119.9756 129.8691 C 119.9756 100.1426 94.9297 77.1904 64.041 77.1904 C 50.3291 77.1904 37.7686 80.7939 28.043 88.6738 L 32.2183 93.4854 C 32.2183 93.4854 85.7617 63.8906 115.4585 130.9414 Z" fill="#ffce86"/>
			<path d="M 223 93.1602 C 223 101.4004 215.1807 109 206.9434 109 L 191 109 C 182.7627 109 175 101.4004 175 93.1602 L 175 92.9541 C 175 84.7168 182.7627 79 191 79 L 206.9434 79 C 215.1807 79 223 84.7168 223 92.9541 L 223 93.1602 Z" fill="#58b2ab"/>
			<path d="M 226.4336 80.4326 L 240.1279 115.293 L 250.7119 112.1797 L 238.2598 79.1875 L 226.4336 80.4326 Z" fill="#58b2ab"/>
			<path d="M 294 73.959 C 294 77.2295 291.0947 80 287.9609 80 L 286.043 80 C 282.9082 80 280 77.2295 280 73.959 L 280 62.3271 C 280 59.0566 282.9082 56 286.043 56 L 287.9609 56 C 291.0947 56 294 59.0566 294 62.3271 L 294 73.959 Z" fill="#ef4b48"/>
			<path d="M 270 79 L 186 79 L 186 63 L 270 63 L 270 79 Z" fill="#5b2947"/>
			<path d="M 190 68.5713 C 190 80.0742 180.2148 86 168.7109 86 L 123.0913 86 C 111.5894 86 102 76.1045 102 64.6025 L 102 63.9434 C 102 52.4385 111.4575 43.1152 122.959 43.1152 L 168.877 47.084 C 180.377 47.084 190 56.4072 190 67.9102 L 190 68.5713 Z" fill="#58b2ab"/>
			<path d="M 147 63.8232 C 147 67.2344 144.2334 70 140.8203 70 L 120.1797 70 C 116.7666 70 114 67.2344 114 63.8232 L 114 60.1768 C 114 56.7656 116.7666 54 120.1797 54 L 140.8203 54 C 144.2334 54 147 56.7656 147 60.1768 L 147 63.8232 Z" fill="#ffce86"/>
			<path d="M 73.6118 95.582 L 84.2295 99.9971 L 111.9751 36.873 L 100.8774 32.0176 L 73.6118 95.582 Z" fill="#58b2ab"/>
			<path d="M 73.8232 95.5908 L 56.853 135.4453 L 68.1797 140.0703 L 84.2295 101.1416 L 84.2295 101.1416 " fill="#ffce86"/>
			<path d="M 72.7524 137.0215 C 72.7524 142.2832 68.4878 146.5469 63.2261 146.5469 C 57.9648 146.5469 53.6997 142.2832 53.6997 137.0215 C 53.6997 131.7598 57.9648 127.4951 63.2261 127.4951 C 68.4878 127.4951 72.7524 131.7598 72.7524 137.0215 Z" fill="#ffce86"/>
			<path d="M 146.2979 96.9121 C 132.3672 96.9121 121.0752 108.375 121.0752 122.3057 C 121.0752 136.2344 133.1328 147.3115 147.0635 147.3115 L 253.832 146.3662 C 253.832 146.3662 259.8057 147.6934 259.8057 135.083 C 259.8057 122.4697 254.4961 123.7979 252.5059 123.7979 L 143.6436 136.4082 C 143.6436 136.4082 129.7285 135.208 130.3682 121.1426 C 131.0313 106.5391 141.6533 104.5469 146.2979 105.876 L 146.2979 105.876 " fill="#ffce86"/>
			<path d="M 125.8491 96.0137 L 130.7734 117.875 L 153.9229 109.9658 L 150.4932 96.1533 L 150.4932 96.1533 " fill="#eb6e63"/>
			<path d="M 128.9629 110.1973 L 178.7871 110.6953 L 177.9307 115 L 129.915 115 L 128.9629 110.1973 Z" fill="#a63d5a"/>
			<path d="M 324.5762 199.8691 L 5.8516 199.8691 C 3.0259 199.8691 0.7139 197.5576 0.7139 194.7314 L 0.7139 194.7314 C 0.7139 191.9063 3.0259 189.5938 5.8516 189.5938 L 324.5762 189.5938 C 327.4014 189.5938 329.7139 191.9063 329.7139 194.7314 L 329.7139 194.7314 C 329.7139 197.5576 327.4014 199.8691 324.5762 199.8691 Z" fill="#76304c"/>
		</g>
	</g>
</svg>