<svg viewBox="0 0 1285 282" style="background-color:#ffffff00" xmlns="http://www.w3.org/2000/svg" xmlns:xlink="http://www.w3.org/1999/xlink"><style>path { cursor: pointer; }</style><path id="bed3" d="M289.494 281.712s67.67.522 102.724-.443c35.055-.967 100.552-21.316 169.65-22.904C697.276 255.253 642 273 742 254c92.097-17.498 154 19 212.086-11.198C991.866 223.16 1039.31 225.016 1087 220c47.69-5.017 64.675-35.855 109.887-50.132 29.572-9.34 89.603-12.557 89.603-12.557l.273 124.69-997.27-.288z" fill="#374645"><animate attributeName="d" dur="2s" id="bed3path" begin="bed3.click" repeatCount="1" calcMode="linear" values="M 289.4942 281.7121 C 289.4942 281.7121 357.1631 282.2339 392.2179 281.2685 C 427.2727 280.303 492.7698 259.9542 561.8677 258.3658 C 697.2763 255.2529 642 273 742 254 C 834.0969 236.5016 896 273 954.0856 242.8016 C 991.8672 223.1591 1039.3086 225.0156 1087 220 C 1134.6914 214.9834 1151.6746 184.1454 1196.8872 169.8677 C 1226.4592 160.5292 1286.4904 157.3113 1286.4904 157.3113 L 1286.7627 282 L 289.4942 281.7121 Z; M 289.4942 281.7121 C 289.4942 281.7121 357.1631 282.2339 392.2179 281.2685 C 427.2727 280.303 517.2657 281.8915 586.3636 280.303 C 721.7722 277.1902 676.999 277.2424 778.7879 277.2424 C 843.9394 277.2424 882.3938 265.4495 946.9697 276.2121 C 983.3333 282.2727 1040.1874 280.7732 1087.8788 275.7576 C 1135.5702 270.741 1175.7576 284.8485 1206.0605 275.2121 C 1235.6138 265.8142 1286.9091 278.5455 1286.9091 278.5455 L 1286.7627 282 L 289.4942 281.7121 Z"/><set attributeType="CSS" begin="bed3path.end" fill="freeze" attributeName="visibility" to="hidden" dur="1s" repeatCount="1"/></path><path visibility="hidden" id="bed2" d="M-1.277 282s72.49-53.212 166.43-57.758c123.846-5.992 172.726-98.484 348.483-40.91 149.834 49.085 133.52-19.72 224.243-31.817 45.453-6.06 142.423-55.333 193.938-40.182 56.11 16.503 69.563-31.244 117.254-36.26 47.692-5.016 53.347-23.745 114.564-38.71 68.182-16.666 123.405-12.023 123.405-12.023l-.277 257.66H-1.277z" fill="#586266"><animate attributeName="d" dur="2s" id="bed2path" begin="bed2.click" repeatCount="1" calcMode="linear" values="M -1.2769 282 C -1.2769 282 71.2121 228.7879 165.1515 224.2424 C 288.9993 218.2498 337.8788 125.7576 513.6364 183.3333 C 663.47 232.4167 647.1559 163.6115 737.8788 151.5152 C 783.3333 145.4545 880.303 96.1818 931.8182 111.3333 C 987.9272 127.836 1001.3809 80.0889 1049.0723 75.0732 C 1096.7637 70.0566 1102.4187 51.3279 1163.6364 36.3636 C 1231.8182 19.697 1287.041 24.3398 1287.041 24.3398 L 1286.7627 282 L -1.2769 282 Z; M 289.4942 281.7121 C 289.4942 281.7121 357.1631 282.2339 392.2179 281.2685 C 427.2727 280.303 492.7698 259.9542 561.8677 258.3658 C 697.2763 255.2529 642 273 742 254 C 834.0969 236.5016 896 273 954.0856 242.8016 C 991.8672 223.1591 1039.3086 225.0156 1087 220 C 1134.6914 214.9834 1151.6746 184.1454 1196.8872 169.8677 C 1226.4592 160.5292 1286.4904 157.3113 1286.4904 157.3113 L 1286.7627 282 L 289.4942 281.7121 Z"/><set attributeType="CSS" begin="bed2path.end" fill="freeze" attributeName="visibility" to="hidden" dur="1s" repeatCount="1"/><animate attributeType="CSS" begin="bed2.click" fill="freeze" attributeName="fill" to="#374645" dur="2s" repeatCount="1"/><animate attributeType="CSS" begin="bed1path.end" fill="freeze" attributeName="visibility" to="visible" dur=".1s" repeatCount="1"/></path><path id="bed1" d="M-3.277 282s-1.78-146.107 1.28-172.387c3.058-26.28 210.194-140.45 363.31-102.83 153.113 37.62 107.745 87.782 247.147 57.686C747.863 34.37 898.467 31.863 926.078 51.93c27.61 20.062 75.303 50.16 122.994 45.143 47.692-5.016 3.255-22.572 117.973-52.67C1281.763 14.31 1289.04 24.34 1289.04 24.34L1286.764 282H-3.277z" fill="#374645"><animate attributeName="d" dur="2s" begin="bed1.click" id="bed1path" repeatCount="1" calcMode="linear" from="M -3.2769 282 C -3.2769 282 -5.0567 135.8932 -1.998 109.6133 C 1.0606 83.3333 208.1968 -30.8369 361.3115 6.7832 C 514.4258 44.4043 469.0576 94.5654 608.46 64.4688 C 747.8633 34.3721 898.4668 31.8643 926.0781 51.9287 C 953.6885 71.9922 1001.3809 102.0889 1049.0723 97.0732 C 1096.7637 92.0566 1052.3271 74.501 1167.0449 44.4043 C 1281.7627 14.3076 1289.041 24.3398 1289.041 24.3398 L 1286.7627 282 L -3.2769 282 Z" to="M -1.2769 282 C -1.2769 282 71.2121 228.7879 165.1515 224.2424 C 288.9993 218.2498 337.8788 125.7576 513.6364 183.3333 C 663.47 232.4167 647.1559 163.6115 737.8788 151.5152 C 783.3333 145.4545 880.303 96.1818 931.8182 111.3333 C 987.9272 127.836 1001.3809 80.0889 1049.0723 75.0732 C 1096.7637 70.0566 1102.4187 51.3279 1163.6364 36.3636 C 1231.8182 19.697 1287.041 24.3398 1287.041 24.3398 L 1286.7627 282 L -1.2769 282 Z"/><animate attributeType="CSS" begin="bed1.click" fill="freeze" attributeName="fill" to="#586266" dur="2s" repeatCount="1"/><set attributeType="CSS" begin="bed1path.end" fill="freeze" attributeName="visibility" to="hidden" dur="1s" repeatCount="1"/></path><g id="crab" transform="translate(50 10)"><path d="M91.822 3.694l-1.728 13.57L82.338 6.84c-2.628 2.584-4.302 6.45-4.302 10.774 0 4.427 1.748 8.375 4.484 10.956L71 38.303V42l15.705-10.87c1.076.368 2.212.564 3.39.564 6.66 0 12.057-6.303 12.057-14.08 0-7.09-4.49-12.938-10.33-13.92zM10.33.694C4.492 1.676 0 7.524 0 14.614c0 7.777 5.398 14.08 12.058 14.08 1.15 0 2.26-.188 3.312-.54L31 39v-3.697l-11.415-9.688c2.762-2.58 4.53-6.55 4.53-11 0-4.326-1.672-8.19-4.3-10.774l-7.757 10.424L10.33.694z" fill="#f56256"/><path id="right" d="M74 45h18l8.162 13.097L90.072 50 80 49l7.08 9.097 3.37 11.16-8.41-11.015L76 51.667l4.114 14.314L74 79.81 75 65l-4.807-15.77L74 45z" fill="#f56256"><animateTransform attributeName="transform" xlink:href="#right" type="rotate" values="0 70 50;-50 70 50;0 70 50" dur=".5s" begin="bed1.click;bed2.click;bed3.click" end="bed1path.end;bed2path.end;bed3path.end" repeatCount="indefinite"/></path><path id="left" d="M26.355 41h-18L.193 54.097 10.285 46l10.07-1-7.08 9.097-3.37 11.16 8.41-11.015 6.04-6.575-4.113 14.314 6.113 13.83-1-14.81 4.807-15.77L26.356 41z" fill="#f56256"><animateTransform attributeName="transform" xlink:href="#left" type="rotate" values="40 26 40;0 26 40;40 26 40" dur=".5s" begin="bed1.click;bed2.click;bed3.click" end="bed1path.end;bed2path.end;bed3path.end" repeatCount="indefinite"/></path><path d="M77.04 45.23c0-8.102-6.244-15.077-15.23-18.23.123-.454.19-.964.19-1.5 0-1.933-.895-3.5-2-3.5s-2 1.567-2 3.5c0 .147.005.293.015.435-2.22-.475-4.56-.73-6.975-.73-2.446 0-4.81.258-7.055.745.01-.148.015-.297.015-.45 0-1.933-.895-3.5-2-3.5s-2 1.567-2 3.5c0 .546.073 1.065.2 1.525C31.253 30.19 25.04 37.15 25.04 45.23c0 11.06 11.64 20.027 26 20.027s26-8.967 26-20.027z" fill="#f56256"/><path id="Ellipse" d="M41 37.5c0-1.933 4.925.5 11 .5s11-2.433 11-.5c0 1.933-4.925 5.5-11 5.5s-11-3.567-11-5.5z" stroke="#c94f46" stroke-width="2" fill="#fff"/><path d="M49.417 18.446c0 4.782-3.877 8.66-8.66 8.66-4.78 0-8.658-3.878-8.658-8.66s3.876-8.66 8.658-8.66 8.66 3.878 8.66 8.66z" fill="#c94f46"/><path d="M44.352 18.446c0 1.986-1.61 3.594-3.594 3.594-1.985 0-3.594-1.608-3.594-3.594 0-1.985 1.61-3.594 3.594-3.594 1.985 0 3.594 1.61 3.594 3.594z" stroke="#fff" stroke-width="2" fill="none"/><path d="M69.417 18.446c0 4.782-3.877 8.66-8.66 8.66-4.78 0-8.658-3.878-8.658-8.66s3.876-8.66 8.658-8.66 8.66 3.878 8.66 8.66z" fill="#c94f46"/><path d="M64.352 18.446c0 1.986-1.61 3.594-3.594 3.594-1.985 0-3.594-1.608-3.594-3.594 0-1.985 1.61-3.594 3.594-3.594 1.985 0 3.594 1.61 3.594 3.594z" stroke="#fff" stroke-width="2" fill="none"/><animateMotion xlink:href="#crab" dur="2s" begin="bed1.click" fill="freeze" path="M 1.2066 21.9577 C 1.2066 21.9577 114.8291 22.14 154 46 C 207.0892 78.338 216.0673 66.2328 258 98 C 297.8169 128.1643 339.047 128.0704 361.277 126.8967"/><animateMotion xlink:href="#crab" dur="2s" begin="bed2.click" fill="freeze" path="M 389.2676 129.2676 C 389.2676 129.2676 433.7449 169.0276 514 172 C 568 174 597.2535 180.7793 618.9719 183.3991 C 670.495 189.6139 770.3803 204.9108 770.3803 200"/><animateMotion xlink:href="#crab" dur="2s" begin="bed3.click" fill="freeze" path="M 781.2394 202.5728 C 781.2394 202.5728 794.7465 196.3474 825 204 C 855.2535 211.6526 933.0704 197.4554 967.9484 208.554 C 1002.8263 219.6526 1110.324 209.7606 1130.324 201.7606"/></g></svg>