<?xml version="1.0" standalone="no"?><!-- Generator: Adobe Fireworks CS6, Export SVG Extension by Aaron Beall (http://fireworks.abeall.com) . Version: 0.6.1  --><!DOCTYPE svg PUBLIC "-//W3C//DTD SVG 1.1//EN" "http://www.w3.org/Graphics/SVG/1.1/DTD/svg11.dtd"><svg id="gears.fw-gears" viewBox="0 0 97 107" style="background-color:#ffffff00" version="1.1"	xmlns="http://www.w3.org/2000/svg" xmlns:xlink="http://www.w3.org/1999/xlink" xml:space="preserve"	x="0px" y="0px" width="97px" height="107px">	<defs>		<radialGradient id="gradient1" cx="50%" cy="50.0001%" r="49.9999%">			<stop stop-color="#cccccc" stop-opacity="1" offset="0%"/>			<stop stop-color="#999999" stop-opacity="1" offset="99.4444%"/>		</radialGradient>		<radialGradient id="gradient2" cx="50%" cy="50%" r="50%">			<stop stop-color="#cccccc" stop-opacity="1" offset="0%"/>			<stop stop-color="#999999" stop-opacity="1" offset="99.4444%"/>		</radialGradient>	</defs>	<g id="whole_gear">		<g id="gear2">			<path d="M 96.99 79.3986 C 97.042 80.3602 96.908 80.8678 96.1835 81.0612 C 95.0085 81.376 93.8849 81.735 92.4227 82.1252 C 91.5579 82.3566 91.2402 82.6178 91.0963 83.7371 C 90.9525 84.8558 91.1946 85.1885 91.9733 85.6293 C 93.2893 86.3734 94.2858 87.003 95.3441 87.6021 C 95.9958 87.9709 95.994 88.5131 95.7017 89.412 C 95.4088 90.312 95.0616 90.7373 94.3181 90.64 C 93.1119 90.4824 91.9352 90.3862 90.4349 90.19 C 89.547 90.0732 89.153 90.1935 88.5903 91.173 C 88.0276 92.1519 88.1229 92.5512 88.6735 93.255 C 89.6036 94.4446 90.2823 95.4061 91.0299 96.3626 C 91.4904 96.9519 91.2985 97.4681 90.6648 98.1714 C 90.0195 98.8878 89.5643 99.152 88.9149 98.7791 C 87.8607 98.1737 86.811 97.6362 85.5002 96.8828 C 84.7244 96.4369 84.3142 96.3972 83.4182 97.0878 C 82.5222 97.7777 82.4569 98.1829 82.6954 99.0432 C 83.0975 100.4963 83.3552 101.6438 83.6781 102.8126 C 83.8774 103.5325 83.4852 103.9026 82.6464 104.344 C 81.8751 104.7502 81.2529 104.8303 80.7966 104.2381 C 80.0548 103.277 79.2917 102.3804 78.3697 101.1846 C 77.825 100.4767 77.4609 100.2839 76.368 100.5803 C 75.275 100.8761 75.0589 101.226 74.9486 102.1111 C 74.762 103.6074 74.5592 104.7658 74.409 105.9686 C 74.316 106.7092 73.8146 106.9394 72.8671 106.9901 C 71.9023 107.0419 71.3928 106.9083 71.1982 106.1873 C 70.8828 105.0167 70.5217 103.8974 70.13 102.4409 C 69.8978 101.5788 69.6355 101.2623 68.5118 101.119 C 67.3888 100.9763 67.0549 101.2168 66.613 101.9926 C 65.866 103.3041 65.2335 104.2968 64.6327 105.3505 C 64.2618 105.9996 63.7112 106.0175 62.8152 105.7067 C 61.9105 105.3931 61.4854 105.0691 61.5824 104.329 C 61.7407 103.1268 61.8372 101.9551 62.0348 100.4606 C 62.1514 99.5756 62.0307 99.183 61.0475 98.6226 C 60.0648 98.0626 59.6639 98.1576 58.9574 98.706 C 57.7633 99.632 56.798 100.3087 55.8378 101.0528 C 55.2462 101.5115 54.728 101.321 54.0221 100.6897 C 53.3029 100.0463 53.0377 99.5928 53.412 98.9459 C 54.0204 97.8957 54.5593 96.8501 55.3162 95.5443 C 55.7639 94.7714 55.8031 94.3628 55.1105 93.4702 C 54.4172 92.5782 54.0106 92.5132 53.1475 92.7504 C 51.6882 93.1509 50.5363 93.4075 49.363 93.7298 C 48.6409 93.9277 48.2688 93.5376 47.8257 92.7014 C 47.4185 91.9337 47.3379 91.3134 47.9323 90.8587 C 48.8968 90.1204 49.7968 89.3596 50.9979 88.4417 C 51.7079 87.8984 51.9014 87.5359 51.6044 86.4471 C 51.3069 85.3588 50.9563 85.1436 50.0672 85.0331 C 48.5654 84.8478 47.4028 84.6458 46.1954 84.4956 C 45.4517 84.4036 45.2206 83.9034 45.1695 82.9597 C 45.1178 81.9986 45.2518 81.491 45.976 81.2977 C 47.151 80.9829 48.2746 80.6232 49.7362 80.233 C 50.6016 80.0023 50.9193 79.741 51.0631 78.6217 C 51.207 77.5029 50.965 77.1703 50.1862 76.7295 C 48.8702 75.9854 47.8734 75.3558 46.8156 74.7567 C 46.1637 74.3878 46.1654 73.8458 46.4578 72.9469 C 46.7509 72.0463 47.0981 71.6215 47.8413 71.7188 C 49.0475 71.8765 50.2238 71.972 51.7246 72.1688 C 52.6125 72.285 53.0065 72.1648 53.5692 71.1859 C 54.1318 70.207 54.0365 69.8076 53.486 69.1038 C 52.5559 67.9143 51.8771 66.9526 51.1296 65.9962 C 50.6692 65.4063 50.8604 64.8901 51.4947 64.1869 C 52.14 63.4709 52.5952 63.2068 53.2445 63.5797 C 54.2988 64.1852 55.3485 64.722 56.6593 65.476 C 57.4351 65.922 57.8453 65.9611 58.7413 65.2711 C 59.6373 64.5811 59.702 64.1759 59.4646 63.3156 C 59.0619 61.8619 58.8043 60.715 58.4813 59.5462 C 58.282 58.8263 58.6743 58.4557 59.5131 58.0143 C 60.2843 57.6085 60.9065 57.5286 61.3629 58.1207 C 62.1046 59.0818 62.8678 59.9784 63.7892 61.1742 C 64.3346 61.8821 64.6985 62.0743 65.7915 61.7785 C 66.8845 61.4827 67.1 61.1328 67.2109 60.2477 C 67.3975 58.7515 67.5997 57.593 67.7505 56.3903 C 67.8435 55.649 68.345 55.4188 69.2924 55.3682 C 70.2571 55.317 70.7666 55.4505 70.9613 56.1716 C 71.2767 57.3421 71.6378 58.4614 72.0295 59.918 C 72.2617 60.7794 72.524 61.0966 73.647 61.2393 C 74.7706 61.3826 75.1046 61.142 75.5465 60.3657 C 76.2935 59.0547 76.926 58.062 77.5269 57.0078 C 77.8971 56.3586 78.4477 56.3413 79.3437 56.6515 C 80.2489 56.9657 80.6741 57.2892 80.577 58.0298 C 80.4188 59.232 80.3223 60.4037 80.1248 61.8982 C 80.0081 62.7827 80.1288 63.1758 81.1115 63.7363 C 82.0947 64.2963 82.4956 64.2013 83.2021 63.6528 C 84.3962 62.7263 85.3616 62.0501 86.3217 61.3054 C 86.9132 60.8474 87.4314 61.0378 88.1374 61.6692 C 88.8561 62.3125 89.1218 62.7654 88.7468 63.4128 C 88.1391 64.4625 87.6001 65.5088 86.8434 66.8145 C 86.3956 67.5868 86.3563 67.9954 87.049 68.8885 C 87.7417 69.7805 88.1489 69.8456 89.012 69.6085 C 90.4713 69.2074 91.6232 68.9507 92.7965 68.629 C 93.5192 68.431 93.8906 68.8212 94.3337 69.6569 C 94.741 70.4251 94.8219 71.0449 94.2274 71.5001 C 93.2621 72.2384 92.3627 72.9993 91.1616 73.9171 C 90.451 74.4604 90.2581 74.8229 90.5551 75.9111 C 90.852 77 91.2032 77.2152 92.0923 77.3251 C 93.5943 77.511 94.7566 77.713 95.964 77.8626 C 96.7081 77.9553 96.9391 78.4553 96.99 79.3986 Z" fill="#666666"/>			<path d="M 54.0094 81.2314 C 53.9805 71.8402 61.5997 64.2036 71.0272 64.1742 C 80.4546 64.146 88.1212 71.7361 88.1501 81.1273 C 88.179 90.5186 80.5597 98.1553 71.1323 98.184 C 61.7049 98.2128 54.0383 90.6228 54.0094 81.2314 Z" fill="#ffffff"/>			<path d="M 69.0116 97.2897 C 77.9434 98.428 86.1102 92.1375 87.2523 83.2399 C 88.3944 74.3424 82.0797 66.2068 73.1479 65.0685 C 64.2161 63.9308 56.0492 70.2214 54.9071 79.1189 C 53.765 88.0164 60.0798 96.152 69.0116 97.2897 Z" fill="url(#gradient1)"/>			<path d="M 65.8984 80.519 C 66.264 77.6687 68.8805 75.6533 71.7424 76.0176 C 74.6042 76.3824 76.6273 78.9888 76.2611 81.8398 C 75.8954 84.6901 73.2784 86.7054 70.4171 86.3412 C 67.5552 85.9763 65.5321 83.37 65.8984 80.519 Z" fill="#ffffff"/>		</g>		<g id="gear1">			<path d="M 4.0415 51.0446 C 5.088 50.813 6.5213 50.4867 7.9086 50.1607 C 8.5198 50.0171 8.95 50.5814 9.4312 51.4115 C 9.9124 52.2416 10.1876 52.8951 9.7573 53.3503 C 8.7804 54.3842 7.7798 55.4574 7.0554 56.2446 C 6.5178 56.8287 6.6545 57.33 7.2674 58.1254 C 7.88 58.9213 8.3326 59.1813 9.0381 58.8148 C 9.9889 58.3215 11.2888 57.6367 12.5438 56.964 C 13.0969 56.6676 13.6588 57.1022 14.3392 57.78 C 15.0198 58.4579 15.4557 59.0179 15.1581 59.5686 C 14.4832 60.8192 13.7957 62.114 13.3003 63.0607 C 12.9329 63.7633 13.1951 64.2128 13.9938 64.8234 C 14.7922 65.4333 15.2971 65.568 15.8832 65.0322 C 16.6735 64.3106 17.7512 63.3138 18.7887 62.3407 C 19.246 61.912 19.9016 62.1865 20.735 62.6659 C 21.5682 63.1453 22.1347 63.574 21.9906 64.1823 C 21.6633 65.564 21.3358 66.9923 21.1035 68.0345 C 20.931 68.808 21.3011 69.1746 22.2309 69.5584 C 23.161 69.9423 23.6832 69.9417 24.1107 69.2736 C 24.6861 68.3723 25.4683 67.1316 26.2179 65.9243 C 26.548 65.3925 27.2528 65.488 28.1823 65.7361 C 29.1116 65.9841 29.7701 66.2523 29.7892 66.8778 C 29.8319 68.2964 29.8865 69.7604 29.933 70.8274 C 29.9674 71.6193 30.42 71.8776 31.418 72.0082 C 32.4163 72.1389 32.9206 72.0042 33.1598 71.248 C 33.4816 70.2294 33.9148 68.8298 34.325 67.47 C 34.5055 66.8715 35.2114 66.7823 36.1736 66.7823 C 37.1357 66.7823 37.8414 66.8715 38.0222 67.47 C 38.4321 68.8298 38.8654 70.2294 39.1874 71.248 C 39.4263 72.0042 39.9307 72.1371 40.9286 72.006 C 41.9266 71.8748 42.3789 71.6146 42.4133 70.8228 C 42.4595 69.7558 42.5144 68.2924 42.5574 66.8732 C 42.5762 66.2483 43.2347 65.9801 44.164 65.7321 C 45.0935 65.484 45.7983 65.3879 46.1284 65.9197 C 46.8781 67.1276 47.6599 68.3677 48.2356 69.2689 C 48.6628 69.9371 49.1844 69.9354 50.114 69.5515 C 51.0441 69.1682 51.4132 68.7999 51.2411 68.0265 C 51.0083 66.9837 50.6813 65.5559 50.3538 64.1742 C 50.2098 63.5654 50.776 63.1366 51.6096 62.6572 C 52.4427 62.1779 53.0984 61.9039 53.5559 62.3326 C 54.5934 63.3058 55.6708 64.302 56.4611 65.0242 C 57.0475 65.5594 57.5507 65.4236 58.3491 64.813 C 59.148 64.2024 59.4091 63.7518 59.0417 63.0492 C 58.546 62.1019 57.8586 60.8071 57.1838 59.5565 C 56.8864 59.0059 57.3219 58.4459 58.0024 57.7679 C 58.683 57.09 59.2451 56.6561 59.7979 56.9519 C 61.0532 57.6246 62.353 58.3094 63.304 58.8027 C 64.0093 59.1693 64.46 58.908 65.0729 58.1121 C 65.6858 57.3168 65.8204 56.8138 65.2826 56.2303 C 64.5581 55.443 63.5576 54.3691 62.5807 53.3356 C 62.1509 52.8804 62.4258 52.2269 62.9071 51.3971 C 63.3883 50.5667 63.8187 50.0024 64.4293 50.1463 C 65.8169 50.472 67.2502 50.7983 68.2964 51.0299 C 69.0734 51.2014 69.4408 50.8331 69.8262 49.9066 C 70.2114 48.9801 70.2109 48.4598 69.5396 48.0343 C 68.6355 47.4608 67.3906 46.6816 66.178 45.9352 C 65.6442 45.6063 65.7407 44.9042 65.9896 43.9783 C 66.2386 43.0523 66.5073 42.3963 67.1353 42.3776 C 68.5598 42.335 70.0289 42.2803 71.1 42.234 C 71.8949 42.1997 72.1543 41.7491 72.2854 40.755 C 72.4171 39.7609 72.2814 39.2582 71.5228 39.0202 C 70.5003 38.6994 69.0948 38.2678 67.7297 37.8592 C 67.1289 37.6794 67.0393 36.9764 67.0393 36.0176 C 67.0393 35.0592 67.1289 34.3562 67.7297 34.1764 C 69.0948 33.7675 70.5003 33.3362 71.5228 33.0154 C 72.2814 32.7774 72.4148 32.275 72.2837 31.2809 C 72.152 30.287 71.8903 29.8361 71.0959 29.8018 C 70.0249 29.7555 68.5552 29.7011 67.1306 29.6586 C 66.5032 29.6396 66.234 28.9835 65.985 28.0576 C 65.7361 27.1316 65.6396 26.4295 66.174 26.101 C 67.386 25.3542 68.6315 24.5753 69.5355 24.0019 C 70.2068 23.576 70.2051 23.0566 69.8198 22.1301 C 69.4344 21.2039 69.0647 20.8359 68.2883 21.0076 C 67.2415 21.2393 65.8082 21.5656 64.4212 21.8916 C 63.81 22.0352 63.3796 21.4709 62.8984 20.6408 C 62.4177 19.8106 62.1422 19.1572 62.5726 18.702 C 63.5494 17.6681 64.55 16.5946 65.2745 15.8076 C 65.8118 15.2235 65.6754 14.722 65.0625 13.9266 C 64.4495 13.131 63.9972 12.8709 63.2918 13.2372 C 62.3409 13.7307 61.0411 14.4152 59.7858 15.088 C 59.2329 15.3843 58.6708 14.9501 57.9903 14.2722 C 57.3098 13.5943 56.8741 13.0344 57.1717 12.4836 C 57.8464 11.2331 58.5339 9.9383 59.0295 8.991 C 59.397 8.2886 59.1347 7.8392 58.3363 7.2289 C 57.5374 6.6183 57.0331 6.4842 56.4467 7.0197 C 55.6564 7.7414 54.579 8.7378 53.5409 9.7112 C 53.0839 10.14 52.4282 9.8654 51.5946 9.3861 C 50.7616 8.907 50.1948 8.4783 50.3393 7.8697 C 50.6663 6.4877 50.9938 5.0599 51.2261 4.0171 C 51.3988 3.2437 51.0284 2.8774 50.0984 2.4938 C 49.1689 2.11 48.6461 2.1103 48.2191 2.7787 C 47.6434 3.6799 46.8616 4.9201 46.112 6.1277 C 45.7819 6.6597 45.077 6.5639 44.1475 6.3156 C 43.218 6.0676 42.5597 5.7997 42.5406 5.1744 C 42.4979 3.7553 42.4434 2.2915 42.3969 1.2246 C 42.3624 0.433 41.9095 0.1749 40.9119 0.044 C 39.9139 -0.0869 39.4093 0.0483 39.1704 0.8039 C 38.8483 1.8225 38.415 3.2224 38.0049 4.5822 C 37.8243 5.181 37.1187 5.2702 36.1563 5.2702 C 35.1941 5.2702 34.4885 5.181 34.3079 4.5822 C 33.8978 3.2224 33.4645 1.8225 33.1425 0.8039 C 32.9036 0.0483 32.3992 -0.0846 31.4012 0.0463 C 30.4033 0.1772 29.9512 0.4376 29.9166 1.2292 C 29.8701 2.2964 29.8154 3.7599 29.7725 5.179 C 29.7537 5.8043 29.0953 6.0722 28.1659 6.3202 C 27.2363 6.5682 26.5316 6.6643 26.2014 6.1323 C 25.4518 4.9247 24.6699 3.6842 24.0942 2.7833 C 23.6671 2.1152 23.1456 2.1169 22.2156 2.5005 C 21.2855 2.884 20.9164 3.2526 21.0887 4.0258 C 21.321 5.0685 21.6486 6.4963 21.9758 7.8783 C 22.1202 8.4869 21.5536 8.9156 20.7202 9.3947 C 19.8869 9.8741 19.2312 10.1486 18.7739 9.7198 C 17.7365 8.7464 16.6587 7.75 15.8684 7.028 C 15.2821 6.4929 14.7789 6.629 13.9802 7.2393 C 13.1819 7.8495 12.9208 8.3004 13.2881 9.0034 C 13.7836 9.9503 14.4709 11.2455 15.146 12.4957 C 15.4435 13.0464 15.0077 13.6064 14.3271 14.2843 C 13.6469 14.9619 13.0848 15.3961 12.532 15.0998 C 11.2766 14.4276 9.9768 13.7428 9.0259 13.2493 C 8.3206 12.8833 7.8699 13.1446 7.257 13.9399 C 6.644 14.7355 6.5092 15.2384 7.0468 15.8223 C 7.7715 16.6095 8.7717 17.6831 9.7486 18.7166 C 10.1793 19.1721 9.9037 19.8253 9.4225 20.6557 C 8.9413 21.4856 8.5112 22.0498 7.9003 21.9063 C 6.5129 21.5803 5.0793 21.2542 4.0328 21.0226 C 3.2565 20.8508 2.8888 21.2194 2.5037 22.1457 C 2.1184 23.0722 2.119 23.5927 2.7897 24.0183 C 3.6941 24.5917 4.9393 25.3707 6.1516 26.1173 C 6.6857 26.4462 6.5892 27.1483 6.3402 28.0743 C 6.0912 28.9999 5.8223 29.656 5.1946 29.675 C 3.77 29.7178 2.3007 29.7722 1.2296 29.8183 C 0.435 29.8528 0.1756 30.3034 0.0442 31.2975 C -0.0873 32.2917 0.0485 32.7944 0.807 33.0323 C 1.8298 33.3531 3.2348 33.7845 4.5996 34.1931 C 5.201 34.3732 5.2905 35.0761 5.2905 36.0346 C 5.2905 36.9934 5.201 37.6963 4.5996 37.8762 C 3.2348 38.285 1.8298 38.7161 0.807 39.0372 C 0.0485 39.2751 -0.085 39.7776 0.0465 40.7714 C 0.1779 41.7658 0.4393 42.2162 1.2339 42.2504 C 2.305 42.2967 3.7744 42.3511 5.199 42.394 C 5.8267 42.413 6.0956 43.0687 6.3445 43.9947 C 6.5935 44.9206 6.69 45.6227 6.1559 45.9516 C 4.9436 46.6983 3.6984 47.4772 2.794 48.0507 C 2.1233 48.4762 2.1248 48.9956 2.5104 49.9221 C 2.8951 50.8487 3.2651 51.2161 4.0415 51.0446 Z" fill="#666666"/>			<path d="M 9.7053 36.026 C 9.7053 21.4692 21.5518 9.6678 36.1649 9.6678 C 50.7778 9.6678 62.6246 21.4692 62.6246 36.026 C 62.6246 50.5834 50.7778 62.3845 36.1649 62.3845 C 21.5518 62.3845 9.7053 50.5834 9.7053 36.026 Z" fill="#ffffff"/>			<path d="M 10.5502 36.026 C 10.5502 21.9339 22.0186 10.5094 36.1649 10.5094 C 50.311 10.5094 61.7794 21.9339 61.7794 36.026 C 61.7794 50.1184 50.311 61.5425 36.1649 61.5425 C 22.0186 61.5425 10.5502 50.1184 10.5502 36.026 Z" fill="url(#gradient2)"/>			<path d="M 36.1649 42.5139 C 39.7617 42.5139 42.6779 39.6092 42.6779 36.026 C 42.6779 32.443 39.7617 29.5383 36.1649 29.5383 C 32.5679 29.5383 29.652 32.443 29.652 36.026 C 29.652 39.6092 32.5679 42.5139 36.1649 42.5139 Z" fill="#ffffff"/>		</g>	</g></svg>