<?xml version="1.0" standalone="no"?><!-- Generator: Adobe Fireworks CS6, Export SVG Extension by Aaron Beall (http://fireworks.abeall.com) . Version: 0.6.1  --><!DOCTYPE svg PUBLIC "-//W3C//DTD SVG 1.1//EN" "http://www.w3.org/Graphics/SVG/1.1/DTD/svg11.dtd"><svg id="cup.fw-Page%201" viewBox="0 0 140 174" style="background-color:#ffffff00" version="1.1"	xmlns="http://www.w3.org/2000/svg" xmlns:xlink="http://www.w3.org/1999/xlink" xml:space="preserve"	x="0px" y="0px" width="140px" height="174px">	<g id="tea_cup">		<g id="cup">			<g>				<g>					<path d="M 0 5.9834 C 0 3.7832 1.7832 2 3.9844 2 L 135.0156 2 C 137.2168 2 139 3.7832 139 5.9834 L 139 12.0166 C 139 14.2168 137.2168 16 135.0156 16 L 3.9844 16 C 1.7832 16 0 14.2168 0 12.0166 L 0 5.9834 Z" fill="#ffce86"/>					<path d="M 133.0908 16.208 L 107.2734 137 L 31.6621 137 L 6.1396 16.208 L 6.1396 16.208 " fill="#a63d5a"/>				</g>				<path d="M 134.0117 13.748 C 134.0117 13.748 137.3936 14.6709 137.3936 10.9824 L 137.0859 6.3721 L 137.0859 6.3721 " stroke="#f0ebd7" stroke-width="2" fill="none"/>				<g>					<g>						<path d="M 1 29.9834 C 1 27.7832 2.7832 26 4.9844 26 L 136.0156 26 C 138.2168 26 140 27.7832 140 29.9834 L 140 36.0166 C 140 38.2168 138.2168 40 136.0156 40 L 4.9844 40 C 2.7832 40 1 38.2168 1 36.0166 L 1 29.9834 Z" fill="#ffce86"/>						<path d="M 134.0908 40.208 L 108.2734 161 L 32.6621 161 L 7.1396 40.208 L 7.1396 40.208 " fill="#a63d5a"/>					</g>					<path d="M 135.0117 37.748 C 135.0117 37.748 138.3936 38.6709 138.3936 34.9824 L 138.0859 30.3721 L 138.0859 30.3721 " stroke="#f0ebd7" stroke-width="2" fill="none"/>				</g>			</g>			<path d="M 73 81 C 73 83.209 71.209 85 69 85 C 66.791 85 65 83.209 65 81 C 65 78.791 66.791 77 69 77 C 71.209 77 73 78.791 73 81 Z" fill="#a63d5a"/>			<path d="M 111.5547 162.8623 L 28.7002 162.8623 C 25.8745 162.8623 23.5625 165.1738 23.5625 168 L 23.5625 168 C 23.5625 170.8262 25.8745 173.1377 28.7002 173.1377 L 111.5547 173.1377 C 114.3809 173.1377 116.6924 170.8262 116.6924 168 L 116.6924 168 C 116.6924 165.1738 114.3809 162.8623 111.5547 162.8623 Z" fill="#d57441"/>		</g>		<g id="tea_bag">			<path d="M 89 128 L 50 128 L 50 83 L 70 69 L 89 83 L 89 128 Z" fill="#f0ebd7"/>			<path d="M 69 77 L 69 1 L 69 1 " stroke="#f0ebd7" stroke-width="4" fill="none"/>		</g>	</g></svg>